<svg width="34" height="41" viewBox="0 0 34 41" fill="none" xmlns="http://www.w3.org/2000/svg">
<g clip-path="url(#clip0_7835_69289)">
<path fill-rule="evenodd" clip-rule="evenodd" d="M20.8159 0.541887C16.8792 0.0733693 15.5928 1.39978 15.9269 5.21845C19.3847 5.55715 21.1291 4.12189 20.8159 0.541887ZM31.7747 0.570943C27.838 0.102426 26.5516 1.42883 26.8857 5.24751C30.3435 5.5862 32.0879 4.15095 31.7747 0.570943ZM13.9723 4.31873C10.0357 3.85021 8.74925 5.17662 9.08334 8.99529C12.5412 9.33399 14.2856 7.89873 13.9723 4.31873ZM7.12879 8.06601C3.19211 7.59749 1.9057 8.9239 2.23979 12.7426C5.69764 13.0813 7.442 11.646 7.12879 8.06601ZM28.8336 9.59824H23.6217C19.5505 9.59824 15.5425 10.607 11.9521 12.5434L6.95788 15.3545C4.10453 17.2732 3.15341 19.192 3.15341 22.0665V28.7786L5.13988 30.2847C5.08724 30.1083 5.05916 29.9249 5.05565 29.738V23.0259C5.05565 19.1884 6.95788 17.2732 8.86012 17.2732C8.86012 17.2732 6.95788 18.2326 6.95788 23.0259V31.6567L8.94435 33.1628C8.8917 32.9864 8.86363 32.803 8.86012 32.6161V25.904C8.86012 22.0665 10.7624 20.1513 12.6646 20.1513C12.6646 20.1513 10.7624 21.1107 10.7624 25.904V34.5348L12.7488 36.0409C12.6962 35.8646 12.6681 35.6811 12.6646 35.4942V28.7821C12.6646 24.9447 14.5668 23.0294 16.4691 23.0294C16.4691 23.0294 14.5668 23.9888 14.5668 28.7821V37.413L16.5638 38.919C16.5042 38.7427 16.4726 38.5593 16.4691 38.3723V30.5563C16.3743 26.7188 18.1712 25.2445 21.3089 25.897C21.9266 26.0698 22.5723 26.1333 23.2111 26.0804C23.4638 26.0557 23.7025 25.9393 23.8779 25.7524C24.0534 25.5654 24.1552 25.3185 24.1622 25.061V24.2639C24.1657 24.144 24.1306 24.0241 24.0604 23.9253C23.9902 23.8266 23.8885 23.756 23.7726 23.7243L21.2983 23.0224C21.888 22.3946 22.6004 21.9008 23.3936 21.5692C24.1868 21.2377 25.0361 21.079 25.8925 21.1036H27.8614C28.0404 21.1036 28.0404 20.9202 27.9456 20.758L27.7733 20.4463L27.7732 20.4462C27.281 19.5568 26.4126 17.988 26.0434 17.1991C25.7802 16.6313 25.6749 16.0035 25.7381 15.3827C25.8012 14.7584 26.0259 14.1658 26.3944 13.6615C27.1946 12.7021 28.7072 12.4728 29.8759 12.4728V10.5541C29.8759 10.4201 29.8479 10.286 29.7952 10.1626C29.7426 10.0391 29.6619 9.92979 29.5636 9.83808C29.4653 9.74638 29.3495 9.67936 29.2231 9.63704C29.0968 9.59471 28.9634 9.5806 28.8301 9.59471L28.8336 9.59824ZM22.1021 16.0246C21.53 16.7159 20.814 17.2697 20.0068 17.6506C19.1996 18.0315 18.3151 18.2291 17.4237 18.2291V15.3509H14.5703C14.5703 14.5891 14.8722 13.8554 15.4056 13.3158C15.9391 12.7762 16.6656 12.4728 17.4237 12.4728H25.0326L22.1021 16.0211V16.0246ZM26.9465 24.5953V25.8206C27.9229 25.8206 29.8758 26.7783 29.8758 30.6092V22.951L27.6095 23.6869C27.4149 23.7502 27.2455 23.8735 27.1266 24.0354C27.0077 24.1974 26.9429 24.3946 26.9429 24.5953H26.9465ZM20.9474 27.5857C22.6274 27.8591 24.3356 27.9397 26.0368 27.824L26.0439 27.831C27.5892 27.831 27.972 28.5076 27.9153 31.6449V39.928C27.295 40.1313 26.6464 40.2295 25.9943 40.2225V30.6914C25.9943 30.439 25.8951 30.1972 25.7143 30.0184C25.5336 29.8396 25.289 29.7379 25.0338 29.7379H21.192L23.5063 32.034C23.6835 32.2127 23.8253 32.4231 23.9245 32.6544C24.0202 32.8858 24.0698 33.1346 24.0698 33.387V40.219H22.1489V33.9935C22.1489 33.8532 22.117 33.713 22.0568 33.5868C21.9965 33.4606 21.9114 33.3485 21.8016 33.2573L20.228 31.9533V40.2155H18.307V30.6844C18.2964 27.5857 19.6715 27.3368 20.9474 27.5857ZM28.0836 17.6415C28.0836 17.6415 29.0827 17.7954 29.876 17.4107C29.876 17.6215 29.8751 17.9431 29.874 18.3091V18.3094C29.8715 19.2166 29.8682 20.3958 29.876 20.8325C29.2442 19.7796 28.65 18.7315 28.0836 17.6415Z" fill="white"/>
</g>
<defs>
<clipPath id="clip0_7835_69289">
<rect width="33.8578" height="39.7712" fill="white" transform="translate(0.0710449 0.45166)"/>
</clipPath>
</defs>
</svg>
